PathFileType	4	(X/Y/Z)	C:\Users\86182\Documents\cortex\Trimmed_M1_L10.trc
DataRate	CameraRate	NumFrames	NumMarkers	Units	OrigDataRate	OrigDataStartFrame	OrigNumFrames
100.00	100.00	       72	2	mm	100.00	1	       901
Frame#	Time	gripper			box			
		X1	Y1	Z1	X2	Y2	Z2	

1	0.000	200.35278	194.97441	192.74850	203.23764	193.95399	57.79361	
2	0.010	200.36493	194.96400	192.73956	203.25433	193.96039	57.80084	
3	0.020	200.34958	194.97595	192.75195	203.25783	193.96936	57.80536	
4	0.030	200.33844	194.98672	192.75909	203.26225	193.96361	57.76401	
5	0.040	200.36249	194.96609	192.74136	203.26384	193.98904	57.81136	
6	0.050	200.30098	194.98541	192.75024	203.29092	193.98878	57.76852	
7	0.060	200.33269	194.98593	192.76233	203.25629	193.97864	57.78221	
8	0.070	200.30394	194.99057	192.75645	203.23245	193.95566	57.78670	
9	0.080	200.31030	194.99939	192.77782	203.29839	193.95270	57.77160	
10	0.090	200.32184	195.00098	192.77133	203.30377	193.98381	57.79782	
11	0.100	200.32184	195.00098	192.77133	203.26628	193.98528	57.76410	
12	0.110	200.34099	194.98907	192.75929	203.25520	193.95886	57.80145	
13	0.120	200.32184	195.00098	192.77133	203.26707	194.00279	57.80910	
14	0.130	200.32118	194.97322	192.74097	203.23268	193.96324	57.79515	
15	0.140	200.33905	194.98364	192.75584	203.27592	193.95425	57.78023	
16	0.150	200.31088	194.99631	192.77457	203.22578	193.95168	57.77907	
17	0.160	200.32184	195.00098	192.77133	203.27832	193.95805	57.79024	
18	0.170	200.33975	194.95982	192.73004	203.31326	193.99165	57.76647	
19	0.180	200.33366	194.99081	192.76260	203.22881	193.96223	57.79827	
20	0.190	200.33168	194.98105	192.76205	203.26157	193.98878	57.77987	
21	0.200	200.32829	194.97737	192.74690	203.22672	193.94681	57.77866	
22	0.210	200.31645	194.99785	192.76686	203.25499	193.97621	57.78653	
23	0.220	200.33844	194.98672	192.75909	203.25758	193.97705	57.77309	
24	0.230	200.34799	194.97853	192.75203	203.24663	193.98682	57.80490	
25	0.240	200.32713	194.99385	192.76459	203.26579	193.97247	57.79202	
26	0.250	200.31999	194.96912	192.73625	203.25046	194.00102	57.79666	
27	0.260	200.30986	194.99060	192.75766	203.26704	193.98315	57.76094	
28	0.270	200.32184	195.00098	192.77133	203.29268	193.97400	57.78153	
29	0.280	200.29977	194.98134	192.74556	203.25183	193.98941	57.79408	
30	0.290	200.34560	194.98058	192.75380	203.26846	193.95303	57.77959	
31	0.300	200.32184	195.00098	192.77133	203.23233	193.94499	57.78972	
32	0.310	200.32079	194.99612	192.77107	203.26143	193.98077	57.78157	
33	0.320	200.31645	194.99785	192.76686	203.25174	193.93372	57.78204	
34	0.330	200.29094	194.97620	192.73819	203.27559	193.97650	57.74788	
35	0.340	200.32654	194.99692	192.76784	203.31223	193.97319	57.77942	
36	0.350	200.33130	194.99286	192.76434	203.29692	194.02686	57.81087	
37	0.360	200.28741	194.98984	192.77072	203.23993	193.96222	57.78592	
38	0.370	200.33963	194.98056	192.75258	203.31725	193.98674	57.77809	
39	0.380	200.30928	194.99367	192.76091	203.27904	193.99724	57.76622	
40	0.390	200.30217	194.98953	192.75497	203.24232	193.97072	57.77673	
41	0.400	200.32555	194.99207	192.76758	203.28473	193.98473	57.76767	
42	0.410	200.35353	194.96089	192.73390	203.27888	193.95477	57.75402	
43	0.420	200.32948	194.98152	192.75162	203.22485	193.97691	57.83179	
44	0.430	200.30984	194.98036	192.74649	203.23836	193.94615	57.77945	
45	0.440	200.31522	194.97321	192.73976	203.24043	193.95117	57.76662	
46	0.450	200.31609	195.00018	192.77457	203.27078	193.97031	57.80350	
47	0.460	200.32112	194.98351	192.75217	203.24222	194.00198	57.79927	
48	0.470	200.30217	194.98953	192.75497	203.25682	193.95485	57.78642	
49	0.480	200.32184	195.00098	192.77133	203.28238	193.93686	57.76848	
50	0.490	200.29683	194.98642	192.75053	203.25488	193.93932	57.75197	
51	0.500	200.32709	194.97325	192.74216	203.28748	193.96637	57.77140	
52	0.510	200.30174	194.99818	192.78264	203.26518	193.97044	57.75271	
53	0.520	200.32294	194.98457	192.75365	203.24139	193.96596	57.77525	
54	0.530	200.33603	194.98878	192.76085	203.26321	193.96068	57.79612	
55	0.540	200.32416	194.96809	192.73595	203.25435	193.95534	57.79371	
56	0.550	200.35107	194.98798	192.74887	203.27719	193.96605	57.76525	
57	0.560	200.32951	194.99182	192.76285	203.27736	193.96507	57.74897	
58	0.570	200.30748	194.98241	192.74825	203.23201	193.95482	57.76638	
59	0.580	200.31825	194.99890	192.76834	203.30193	193.99683	57.76736	
60	0.590	200.30278	194.97626	192.74059	203.26512	193.97266	57.76274	
61	0.600	200.32184	195.00098	192.77133	203.27580	193.96857	57.79068	
62	0.610	200.33366	194.99081	192.76260	203.30989	193.97997	57.76781	
63	0.620	200.31938	194.99275	192.76187	203.25137	193.95433	57.75197	
64	0.630	200.32420	194.99895	192.76958	203.31580	193.99530	57.72785	
65	0.640	200.32056	194.98660	192.75540	203.28735	193.98427	57.76038	
66	0.650	200.30098	194.98541	192.75024	203.30234	193.99199	57.72131	
67	0.660	200.34799	194.97853	192.75203	203.26691	193.94150	57.78175	
68	0.670	200.30573	194.99159	192.75793	203.22713	193.96506	57.78415	
69	0.680	200.32234	194.98764	192.75688	203.36447	194.00789	57.71642	
70	0.690	200.34398	195.00446	192.76540	203.32307	193.96989	57.77198	
71	0.700	200.31882	194.99580	192.76509	203.27333	193.95712	57.77220	
72	0.710	200.32184	195.00098	192.77133	203.27972	193.96416	57.78956	
